<svg version="1.1" id="Layer_1" xmlns="http://www.w3.org/2000/svg" xmlns:xlink="http://www.w3.org/1999/xlink" x="0px" y="0px"
	 width="100%" viewBox="0 0 2000 2000" enable-background="new 0 0 2000 2000" xml:space="preserve">
<path fill="#FFFFFF" opacity="1.000000" stroke="none" 
	d="
M1826.000000,2001.000000 
	C1217.333374,2001.000000 609.166687,2001.000000 1.000000,2001.000000 
	C1.000000,1334.333374 1.000000,667.666687 1.000000,1.000000 
	C667.666687,1.000000 1334.333374,1.000000 2001.000000,1.000000 
	C2001.000000,667.666687 2001.000000,1334.333374 2001.000000,2001.000000 
	C1942.833374,2001.000000 1884.666626,2001.000000 1826.000000,2001.000000 
M641.114868,1038.500000 
	C641.114868,963.427246 641.114868,888.354553 641.114868,813.431274 
	C515.503784,813.431274 390.623138,813.431274 265.711060,813.431274 
	C265.711060,938.716675 265.711060,1063.638062 265.711060,1188.649536 
	C390.916931,1188.649536 515.824646,1188.649536 641.114868,1188.649536 
	C641.114868,1138.756958 641.114868,1089.128418 641.114868,1038.500000 
M778.263916,1093.157349 
	C780.187622,1102.962524 782.093750,1104.573242 791.836853,1104.577881 
	C804.665649,1104.583862 817.495605,1104.690186 830.322998,1104.554199 
	C856.420837,1104.277466 873.905151,1086.786377 873.945190,1060.880127 
	C874.007812,1020.394531 873.532471,979.902832 874.103821,939.425232 
	C874.524475,909.628052 851.484070,896.624573 830.593628,896.201965 
	C803.947266,895.662903 777.281860,896.049683 750.624634,896.080261 
	C736.963257,896.095886 732.716003,900.380432 732.658203,914.016541 
	C732.656067,914.516357 732.656494,915.016174 732.656494,915.515991 
	C732.656433,973.495422 732.653992,1031.474854 732.666016,1089.454346 
	C732.666443,1091.617432 732.155762,1094.100586 733.026489,1095.872681 
	C734.539246,1098.951416 736.328491,1102.787720 739.083740,1104.209839 
	C751.798767,1110.772461 763.572754,1103.314819 763.598938,1089.168579 
	C763.698364,1035.520996 763.787781,981.873535 763.880371,928.226013 
	C763.883423,926.455139 763.880737,924.684204 763.880737,922.782959 
	C785.491333,922.782959 806.467834,922.635132 827.440430,922.858887 
	C835.344727,922.943176 840.133850,927.189026 841.905029,934.867859 
	C842.570923,937.754639 842.764099,940.804993 842.768433,943.781433 
	C842.823486,981.268066 842.809082,1018.754761 842.792480,1056.241455 
	C842.791565,1058.402710 842.796509,1060.588867 842.497253,1062.721069 
	C841.019348,1073.250000 835.699463,1077.938843 825.079224,1078.012207 
	C814.250305,1078.087036 803.420349,1078.023438 792.590881,1078.032104 
	C781.625305,1078.040894 778.472107,1081.179565 778.263916,1093.157349 
M1700.153931,1094.388672 
	C1701.878418,1097.033691 1703.307129,1099.953125 1705.424072,1102.233765 
	C1707.021118,1103.954224 1709.418335,1105.764771 1711.599731,1105.958862 
	C1719.032471,1106.620483 1725.460205,1103.792847 1729.882568,1097.791748 
	C1733.901611,1092.338013 1731.957764,1086.822998 1728.788940,1081.491699 
	C1713.660034,1056.038330 1698.655396,1030.510986 1683.475952,1005.088013 
	C1681.900757,1002.449646 1681.890381,1000.568481 1683.464722,997.918823 
	C1699.607666,970.747131 1715.731323,943.561462 1731.472290,916.156860 
	C1733.226807,913.102600 1733.942505,908.162598 1732.763794,904.976013 
	C1730.156006,897.926147 1723.322876,895.441101 1716.418213,894.366455 
	C1710.574707,893.456787 1707.304810,897.637573 1704.636597,902.034607 
	C1699.977173,909.713379 1695.479614,917.490356 1690.902588,925.219238 
	C1680.497559,942.789612 1670.085449,960.355774 1659.449341,978.306580 
	C1658.350708,976.517639 1657.471313,975.124146 1656.628784,973.708679 
	C1642.761230,950.407837 1628.905151,927.100220 1615.020020,903.809937 
	C1614.001099,902.100830 1612.867310,900.443115 1611.634521,898.881897 
	C1608.113770,894.423462 1603.525391,893.073730 1598.282837,895.124634 
	C1595.060913,896.385132 1591.885010,898.001709 1589.061157,899.988281 
	C1584.148926,903.444092 1583.160156,907.534973 1585.473877,913.038574 
	C1586.307373,915.021118 1587.368530,916.921021 1588.459351,918.780334 
	C1603.610840,944.605103 1618.721558,970.454407 1634.034912,996.182922 
	C1635.981689,999.453796 1636.145386,1001.744141 1634.120728,1005.115784 
	C1618.536133,1031.071411 1603.098267,1057.117310 1587.910522,1083.306641 
	C1586.139526,1086.360352 1584.772095,1090.843872 1585.642456,1093.994873 
	C1587.716797,1101.505737 1594.471924,1104.361938 1601.497925,1106.013550 
	C1608.093384,1107.564087 1611.711060,1103.446411 1614.678955,1098.461548 
	C1620.806396,1088.170044 1626.916016,1077.867920 1633.015503,1067.559814 
	C1641.465332,1053.279541 1649.899170,1038.989746 1658.659302,1024.163208 
	C1672.578491,1047.678955 1686.207764,1070.705078 1700.153931,1094.388672 
M1200.066284,919.699524 
	C1200.932739,916.835449 1202.321655,914.007141 1202.520996,911.097351 
	C1202.726685,908.094666 1202.710449,904.376343 1201.152344,902.086121 
	C1196.661865,895.485779 1189.401123,894.363586 1182.036865,894.835144 
	C1175.581055,895.248474 1173.518799,900.295898 1171.884644,905.617737 
	C1159.254517,946.750610 1146.581299,987.870300 1133.919678,1028.993530 
	C1131.479492,1036.918945 1129.032349,1044.842163 1126.240479,1053.894775 
	C1125.273193,1051.324951 1124.693115,1049.988403 1124.261108,1048.605591 
	C1117.473999,1026.880127 1110.675537,1005.158264 1103.941162,983.416504 
	C1095.879395,957.389832 1087.874756,931.345459 1079.849121,905.307556 
	C1078.493530,900.909729 1076.874634,896.429626 1071.890869,895.239563 
	C1064.610718,893.501099 1058.059692,895.475708 1052.518188,900.570374 
	C1047.634766,905.060120 1048.700317,910.294189 1050.404053,915.790222 
	C1068.259888,973.392822 1086.076050,1031.007812 1103.842163,1088.638184 
	C1108.088867,1102.413818 1114.612915,1106.874512 1129.124512,1105.496582 
	C1130.782471,1105.339111 1132.438477,1105.149536 1134.088745,1104.925171 
	C1140.467773,1104.058960 1144.331787,1100.861572 1146.325439,1094.334717 
	C1164.040039,1036.342163 1182.008911,978.427002 1200.066284,919.699524 
M1027.362183,897.918152 
	C1024.996094,897.301880 1022.632141,896.158813 1020.263611,896.149292 
	C990.275269,896.028198 960.286255,896.036011 930.297546,896.088440 
	C919.162720,896.107849 913.905457,901.166565 913.891479,912.230774 
	C913.817322,970.875427 913.816223,1029.520264 913.887146,1088.165039 
	C913.900452,1099.168335 918.733093,1104.403564 929.621399,1104.480469 
	C961.607666,1104.706665 993.596985,1104.631836 1025.583740,1104.452148 
	C1028.177612,1104.437622 1031.647827,1103.477295 1033.184082,1101.663330 
	C1037.727417,1096.299316 1036.822632,1089.777100 1034.796997,1083.654785 
	C1033.085205,1078.481323 1028.502319,1077.983398 1023.730408,1077.996704 
	C999.239746,1078.065063 974.748718,1078.028076 950.257874,1078.027954 
	C948.493958,1078.027954 946.730103,1078.028076 945.064941,1078.028076 
	C945.064941,1025.942749 945.064941,974.522339 945.064941,922.681458 
	C947.109192,922.681458 948.899963,922.681396 950.690735,922.681396 
	C973.015747,922.681274 995.340759,922.693054 1017.665771,922.662048 
	C1019.821106,922.659058 1022.318726,923.028076 1024.050659,922.096436 
	C1026.624023,920.711975 1029.810913,918.733948 1030.690674,916.276245 
	C1032.891235,910.128296 1032.455200,903.812195 1027.362183,897.918152 
M1395.533081,1104.583374 
	C1426.182617,1104.583008 1456.832642,1104.643555 1487.481323,1104.486206 
	C1490.477051,1104.470947 1494.434692,1104.067261 1496.272461,1102.198364 
	C1501.375122,1097.009277 1500.463013,1090.215210 1498.616943,1083.873901 
	C1497.086792,1078.617554 1492.589722,1077.974731 1487.754150,1077.989624 
	C1461.269165,1078.071533 1434.783813,1078.028076 1408.298584,1078.027954 
	C1406.534058,1078.027832 1404.769531,1078.028076 1402.824219,1078.028076 
	C1402.824219,1075.558472 1402.824341,1073.737793 1402.824341,1071.917114 
	C1402.824341,1032.272583 1402.824219,992.627991 1402.824097,952.983459 
	C1402.824097,938.324951 1402.839478,923.666504 1402.813721,909.007996 
	C1402.805908,904.567139 1402.361450,900.065796 1398.090576,897.580750 
	C1391.447754,893.715637 1384.348755,893.766602 1377.486328,896.872620 
	C1371.515991,899.574890 1371.852905,905.275391 1371.854248,910.681030 
	C1371.869263,968.815308 1371.862915,1026.949585 1371.866821,1085.083862 
	C1371.866943,1086.749023 1371.849243,1088.418457 1371.952759,1090.078735 
	C1372.500854,1098.871948 1376.850586,1103.488281 1385.566528,1104.331543 
	C1388.540649,1104.619263 1391.553223,1104.510864 1395.533081,1104.583374 
M1258.579102,1025.500122 
	C1258.579102,991.406555 1258.579102,957.312988 1258.579102,922.682983 
	C1260.815430,922.682983 1262.596436,922.683044 1264.377319,922.683044 
	C1285.860229,922.683044 1307.343140,922.687195 1328.826050,922.675415 
	C1330.655029,922.674438 1332.500732,922.704346 1334.309814,922.483215 
	C1339.616699,921.834656 1342.369507,919.140625 1342.941528,913.820007 
	C1343.206665,911.353882 1343.194580,908.812439 1342.936157,906.344177 
	C1342.177368,899.096680 1338.772827,896.090942 1331.456055,896.076904 
	C1316.134888,896.047546 1300.813843,896.067749 1285.492676,896.068054 
	C1271.503784,896.068298 1257.514160,895.984497 1243.526245,896.097839 
	C1233.179810,896.181641 1228.270020,901.019043 1227.709961,911.314331 
	C1227.628540,912.809326 1227.642212,914.310547 1227.642212,915.808899 
	C1227.639038,973.596252 1227.636353,1031.383545 1227.651489,1089.170898 
	C1227.652100,1091.498657 1227.369385,1093.969971 1228.042847,1096.115845 
	C1228.799316,1098.526611 1229.953003,1101.444458 1231.877563,1102.741089 
	C1238.291992,1107.062744 1245.440674,1106.898315 1252.377075,1103.986328 
	C1258.638184,1101.357788 1258.567505,1095.529541 1258.571899,1089.949707 
	C1258.588379,1068.799927 1258.578857,1047.650024 1258.579102,1025.500122 
M1524.955811,1067.500000 
	C1524.961548,1076.162476 1524.572144,1084.852417 1525.175049,1093.473145 
	C1525.403320,1096.739014 1527.082520,1100.989380 1529.557007,1102.799072 
	C1535.784180,1107.353027 1543.137573,1106.855225 1550.021606,1103.895386 
	C1556.203003,1101.237671 1556.093872,1095.458496 1556.090454,1089.815796 
	C1556.054321,1030.177856 1556.069092,970.539917 1556.064087,910.901978 
	C1556.063843,909.070190 1556.466797,907.065918 1555.864868,905.445496 
	C1554.865845,902.756409 1553.827637,899.415222 1551.701660,897.936462 
	C1545.348755,893.517822 1538.096436,893.857605 1531.182373,896.621521 
	C1524.914795,899.127136 1524.930054,904.912292 1524.934082,910.575134 
	C1524.971191,962.550110 1524.955933,1014.525024 1524.955811,1067.500000 
M975.377930,979.839111 
	C967.885498,987.673828 966.162048,997.543152 970.764465,1006.258118 
	C974.995239,1014.269348 984.046997,1018.932983 992.784668,1017.603394 
	C1002.357788,1016.146790 1009.333313,1009.730164 1011.302368,1000.569519 
	C1013.245544,991.529419 1009.609741,982.735291 1001.848816,977.704346 
	C993.771606,972.468445 984.304016,973.067810 975.377930,979.839111 
M1312.336792,1016.022217 
	C1313.501709,1015.387634 1314.723999,1014.838806 1315.822266,1014.104492 
	C1322.961914,1009.331421 1326.316528,1002.507507 1325.508301,994.076782 
	C1324.638428,985.001160 1319.575684,978.572510 1310.983521,975.525330 
	C1302.804321,972.624634 1295.194458,974.196899 1288.786377,980.223694 
	C1281.537720,987.041077 1279.969727,998.174316 1284.889038,1006.806946 
	C1290.256226,1016.225464 1300.116699,1019.721741 1312.336792,1016.022217 
z"/>
<path fill="#C10201" opacity="1.000000" stroke="none" 
	d="
M641.114868,1039.000000 
	C641.114868,1089.128418 641.114868,1138.756958 641.114868,1188.649536 
	C515.824646,1188.649536 390.916931,1188.649536 265.711060,1188.649536 
	C265.711060,1063.638062 265.711060,938.716675 265.711060,813.431274 
	C390.623138,813.431274 515.503784,813.431274 641.114868,813.431274 
	C641.114868,888.354553 641.114868,963.427246 641.114868,1039.000000 
M502.579346,949.110840 
	C512.353638,927.683411 522.127991,906.255920 532.169128,884.243469 
	C523.666931,884.243469 515.883118,884.471375 508.122314,884.147522 
	C504.228546,883.985107 502.377930,885.180054 500.713287,888.838684 
	C467.056061,962.812988 433.224487,1036.708008 399.438446,1110.623779 
	C398.840637,1111.931641 398.371704,1113.298218 397.735687,1114.908081 
	C407.703583,1114.908081 417.177124,1114.908081 426.814636,1114.908081 
	C451.957672,1059.830444 477.079559,1004.799011 502.579346,949.110840 
M371.979004,937.472534 
	C388.579285,929.079102 405.194885,920.715576 421.753571,912.240845 
	C423.227142,911.486633 425.384796,910.052673 425.434753,908.859497 
	C425.765015,900.972473 425.605469,893.065002 425.605469,884.362732 
	C422.885437,885.744263 421.002350,886.699524 419.120270,887.656860 
	C391.874359,901.514526 364.623016,915.361572 337.388458,929.241516 
	C332.956940,931.500000 326.924042,932.875061 324.679138,936.530273 
	C322.433777,940.186218 324.237579,946.207947 323.831909,951.156982 
	C323.556305,954.519409 324.861206,956.092285 327.765869,957.551636 
	C357.454620,972.467712 387.066254,987.537109 416.705658,1002.551453 
	C419.462524,1003.947998 422.261841,1005.260681 425.637634,1006.902161 
	C425.637634,999.189941 425.407074,992.227966 425.735443,985.292480 
	C425.898376,981.851074 424.539490,980.342651 421.651947,978.936646 
	C410.306274,973.411987 399.079071,967.643677 387.817932,961.945984 
	C377.307587,956.628052 366.810059,951.284851 355.769775,945.680115 
	C361.344025,942.877808 366.339935,940.366272 371.979004,937.472534 
M547.500122,1087.672607 
	C520.461365,1087.672607 493.422577,1087.672607 466.435822,1087.672607 
	C466.435822,1097.251465 466.435822,1105.992554 466.435822,1114.760010 
	C504.449585,1114.760010 542.163147,1114.760010 579.817993,1114.760010 
	C579.817993,1105.597168 579.817993,1096.712402 579.817993,1087.672607 
	C569.135864,1087.672607 558.817993,1087.672607 547.500122,1087.672607 
z"/>
<path fill="#C20403" opacity="1.000000" stroke="none" 
	d="
M778.238281,1092.735840 
	C778.472107,1081.179565 781.625305,1078.040894 792.590881,1078.032104 
	C803.420349,1078.023438 814.250305,1078.087036 825.079224,1078.012207 
	C835.699463,1077.938843 841.019348,1073.250000 842.497253,1062.721069 
	C842.796509,1060.588867 842.791565,1058.402710 842.792480,1056.241455 
	C842.809082,1018.754761 842.823486,981.268066 842.768433,943.781433 
	C842.764099,940.804993 842.570923,937.754639 841.905029,934.867859 
	C840.133850,927.189026 835.344727,922.943176 827.440430,922.858887 
	C806.467834,922.635132 785.491333,922.782959 763.880737,922.782959 
	C763.880737,924.684204 763.883423,926.455139 763.880371,928.226013 
	C763.787781,981.873535 763.698364,1035.520996 763.598938,1089.168579 
	C763.572754,1103.314819 751.798767,1110.772461 739.083740,1104.209839 
	C736.328491,1102.787720 734.539246,1098.951416 733.026489,1095.872681 
	C732.155762,1094.100586 732.666443,1091.617432 732.666016,1089.454346 
	C732.653992,1031.474854 732.656433,973.495422 732.656494,915.515991 
	C732.656494,915.016174 732.656067,914.516357 732.658203,914.016541 
	C732.716003,900.380432 736.963257,896.095886 750.624634,896.080261 
	C777.281860,896.049683 803.947266,895.662903 830.593628,896.201965 
	C851.484070,896.624573 874.524475,909.628052 874.103821,939.425232 
	C873.532471,979.902832 874.007812,1020.394531 873.945190,1060.880127 
	C873.905151,1086.786377 856.420837,1104.277466 830.322998,1104.554199 
	C817.495605,1104.690186 804.665649,1104.583862 791.836853,1104.577881 
	C782.093750,1104.573242 780.187622,1102.962524 778.238281,1092.735840 
z"/>
<path fill="#C10302" opacity="1.000000" stroke="none" 
	d="
M1699.995605,1094.059814 
	C1686.207764,1070.705078 1672.578491,1047.678955 1658.659302,1024.163208 
	C1649.899170,1038.989746 1641.465332,1053.279541 1633.015503,1067.559814 
	C1626.916016,1077.867920 1620.806396,1088.170044 1614.678955,1098.461548 
	C1611.711060,1103.446411 1608.093384,1107.564087 1601.497925,1106.013550 
	C1594.471924,1104.361938 1587.716797,1101.505737 1585.642456,1093.994873 
	C1584.772095,1090.843872 1586.139526,1086.360352 1587.910522,1083.306641 
	C1603.098267,1057.117310 1618.536133,1031.071411 1634.120728,1005.115784 
	C1636.145386,1001.744141 1635.981689,999.453796 1634.034912,996.182922 
	C1618.721558,970.454407 1603.610840,944.605103 1588.459351,918.780334 
	C1587.368530,916.921021 1586.307373,915.021118 1585.473877,913.038574 
	C1583.160156,907.534973 1584.148926,903.444092 1589.061157,899.988281 
	C1591.885010,898.001709 1595.060913,896.385132 1598.282837,895.124634 
	C1603.525391,893.073730 1608.113770,894.423462 1611.634521,898.881897 
	C1612.867310,900.443115 1614.001099,902.100830 1615.020020,903.809937 
	C1628.905151,927.100220 1642.761230,950.407837 1656.628784,973.708679 
	C1657.471313,975.124146 1658.350708,976.517639 1659.449341,978.306580 
	C1670.085449,960.355774 1680.497559,942.789612 1690.902588,925.219238 
	C1695.479614,917.490356 1699.977173,909.713379 1704.636597,902.034607 
	C1707.304810,897.637573 1710.574707,893.456787 1716.418213,894.366455 
	C1723.322876,895.441101 1730.156006,897.926147 1732.763794,904.976013 
	C1733.942505,908.162598 1733.226807,913.102600 1731.472290,916.156860 
	C1715.731323,943.561462 1699.607666,970.747131 1683.464722,997.918823 
	C1681.890381,1000.568481 1681.900757,1002.449646 1683.475952,1005.088013 
	C1698.655396,1030.510986 1713.660034,1056.038330 1728.788940,1081.491699 
	C1731.957764,1086.822998 1733.901611,1092.338013 1729.882568,1097.791748 
	C1725.460205,1103.792847 1719.032471,1106.620483 1711.599731,1105.958862 
	C1709.418335,1105.764771 1707.021118,1103.954224 1705.424072,1102.233765 
	C1703.307129,1099.953125 1701.878418,1097.033691 1699.995605,1094.059814 
z"/>
<path fill="#C10302" opacity="1.000000" stroke="none" 
	d="
M1199.984619,920.094238 
	C1182.008911,978.427002 1164.040039,1036.342163 1146.325439,1094.334717 
	C1144.331787,1100.861572 1140.467773,1104.058960 1134.088745,1104.925171 
	C1132.438477,1105.149536 1130.782471,1105.339111 1129.124512,1105.496582 
	C1114.612915,1106.874512 1108.088867,1102.413818 1103.842163,1088.638184 
	C1086.076050,1031.007812 1068.259888,973.392822 1050.404053,915.790222 
	C1048.700317,910.294189 1047.634766,905.060120 1052.518188,900.570374 
	C1058.059692,895.475708 1064.610718,893.501099 1071.890869,895.239563 
	C1076.874634,896.429626 1078.493530,900.909729 1079.849121,905.307556 
	C1087.874756,931.345459 1095.879395,957.389832 1103.941162,983.416504 
	C1110.675537,1005.158264 1117.473999,1026.880127 1124.261108,1048.605591 
	C1124.693115,1049.988403 1125.273193,1051.324951 1126.240479,1053.894775 
	C1129.032349,1044.842163 1131.479492,1036.918945 1133.919678,1028.993530 
	C1146.581299,987.870300 1159.254517,946.750610 1171.884644,905.617737 
	C1173.518799,900.295898 1175.581055,895.248474 1182.036865,894.835144 
	C1189.401123,894.363586 1196.661865,895.485779 1201.152344,902.086121 
	C1202.710449,904.376343 1202.726685,908.094666 1202.520996,911.097351 
	C1202.321655,914.007141 1200.932739,916.835449 1199.984619,920.094238 
z"/>
<path fill="#C20504" opacity="1.000000" stroke="none" 
	d="
M1027.665771,898.160278 
	C1032.455200,903.812195 1032.891235,910.128296 1030.690674,916.276245 
	C1029.810913,918.733948 1026.624023,920.711975 1024.050659,922.096436 
	C1022.318726,923.028076 1019.821106,922.659058 1017.665771,922.662048 
	C995.340759,922.693054 973.015747,922.681274 950.690735,922.681396 
	C948.899963,922.681396 947.109192,922.681458 945.064941,922.681458 
	C945.064941,974.522339 945.064941,1025.942749 945.064941,1078.028076 
	C946.730103,1078.028076 948.493958,1078.027954 950.257874,1078.027954 
	C974.748718,1078.028076 999.239746,1078.065063 1023.730408,1077.996704 
	C1028.502319,1077.983398 1033.085205,1078.481323 1034.796997,1083.654785 
	C1036.822632,1089.777100 1037.727417,1096.299316 1033.184082,1101.663330 
	C1031.647827,1103.477295 1028.177612,1104.437622 1025.583740,1104.452148 
	C993.596985,1104.631836 961.607666,1104.706665 929.621399,1104.480469 
	C918.733093,1104.403564 913.900452,1099.168335 913.887146,1088.165039 
	C913.816223,1029.520264 913.817322,970.875427 913.891479,912.230774 
	C913.905457,901.166565 919.162720,896.107849 930.297546,896.088440 
	C960.286255,896.036011 990.275269,896.028198 1020.263611,896.149292 
	C1022.632141,896.158813 1024.996094,897.301880 1027.665771,898.160278 
z"/>
<path fill="#C20504" opacity="1.000000" stroke="none" 
	d="
M1395.040649,1104.583374 
	C1391.553223,1104.510864 1388.540649,1104.619263 1385.566528,1104.331543 
	C1376.850586,1103.488281 1372.500854,1098.871948 1371.952759,1090.078735 
	C1371.849243,1088.418457 1371.866943,1086.749023 1371.866821,1085.083862 
	C1371.862915,1026.949585 1371.869263,968.815308 1371.854248,910.681030 
	C1371.852905,905.275391 1371.515991,899.574890 1377.486328,896.872620 
	C1384.348755,893.766602 1391.447754,893.715637 1398.090576,897.580750 
	C1402.361450,900.065796 1402.805908,904.567139 1402.813721,909.007996 
	C1402.839478,923.666504 1402.824097,938.324951 1402.824097,952.983459 
	C1402.824219,992.627991 1402.824341,1032.272583 1402.824341,1071.917114 
	C1402.824341,1073.737793 1402.824219,1075.558472 1402.824219,1078.028076 
	C1404.769531,1078.028076 1406.534058,1078.027832 1408.298584,1078.027954 
	C1434.783813,1078.028076 1461.269165,1078.071533 1487.754150,1077.989624 
	C1492.589722,1077.974731 1497.086792,1078.617554 1498.616943,1083.873901 
	C1500.463013,1090.215210 1501.375122,1097.009277 1496.272461,1102.198364 
	C1494.434692,1104.067261 1490.477051,1104.470947 1487.481323,1104.486206 
	C1456.832642,1104.643555 1426.182617,1104.583008 1395.040649,1104.583374 
z"/>
<path fill="#C20504" opacity="1.000000" stroke="none" 
	d="
M1258.579102,1026.000244 
	C1258.578857,1047.650024 1258.588379,1068.799927 1258.571899,1089.949707 
	C1258.567505,1095.529541 1258.638184,1101.357788 1252.377075,1103.986328 
	C1245.440674,1106.898315 1238.291992,1107.062744 1231.877563,1102.741089 
	C1229.953003,1101.444458 1228.799316,1098.526611 1228.042847,1096.115845 
	C1227.369385,1093.969971 1227.652100,1091.498657 1227.651489,1089.170898 
	C1227.636353,1031.383545 1227.639038,973.596252 1227.642212,915.808899 
	C1227.642212,914.310547 1227.628540,912.809326 1227.709961,911.314331 
	C1228.270020,901.019043 1233.179810,896.181641 1243.526245,896.097839 
	C1257.514160,895.984497 1271.503784,896.068298 1285.492676,896.068054 
	C1300.813843,896.067749 1316.134888,896.047546 1331.456055,896.076904 
	C1338.772827,896.090942 1342.177368,899.096680 1342.936157,906.344177 
	C1343.194580,908.812439 1343.206665,911.353882 1342.941528,913.820007 
	C1342.369507,919.140625 1339.616699,921.834656 1334.309814,922.483215 
	C1332.500732,922.704346 1330.655029,922.674438 1328.826050,922.675415 
	C1307.343140,922.687195 1285.860229,922.683044 1264.377319,922.683044 
	C1262.596436,922.683044 1260.815430,922.682983 1258.579102,922.682983 
	C1258.579102,957.312988 1258.579102,991.406555 1258.579102,1026.000244 
z"/>
<path fill="#C10201" opacity="1.000000" stroke="none" 
	d="
M1524.955811,1067.000000 
	C1524.955933,1014.525024 1524.971191,962.550110 1524.934082,910.575134 
	C1524.930054,904.912292 1524.914795,899.127136 1531.182373,896.621521 
	C1538.096436,893.857605 1545.348755,893.517822 1551.701660,897.936462 
	C1553.827637,899.415222 1554.865845,902.756409 1555.864868,905.445496 
	C1556.466797,907.065918 1556.063843,909.070190 1556.064087,910.901978 
	C1556.069092,970.539917 1556.054321,1030.177856 1556.090454,1089.815796 
	C1556.093872,1095.458496 1556.203003,1101.237671 1550.021606,1103.895386 
	C1543.137573,1106.855225 1535.784180,1107.353027 1529.557007,1102.799072 
	C1527.082520,1100.989380 1525.403320,1096.739014 1525.175049,1093.473145 
	C1524.572144,1084.852417 1524.961548,1076.162476 1524.955811,1067.000000 
z"/>
<path fill="#C20504" opacity="1.000000" stroke="none" 
	d="
M975.640015,979.593018 
	C984.304016,973.067810 993.771606,972.468445 1001.848816,977.704346 
	C1009.609741,982.735291 1013.245544,991.529419 1011.302368,1000.569519 
	C1009.333313,1009.730164 1002.357788,1016.146790 992.784668,1017.603394 
	C984.046997,1018.932983 974.995239,1014.269348 970.764465,1006.258118 
	C966.162048,997.543152 967.885498,987.673828 975.640015,979.593018 
z"/>
<path fill="#C20504" opacity="1.000000" stroke="none" 
	d="
M1311.965942,1016.149414 
	C1300.116699,1019.721741 1290.256226,1016.225464 1284.889038,1006.806946 
	C1279.969727,998.174316 1281.537720,987.041077 1288.786377,980.223694 
	C1295.194458,974.196899 1302.804321,972.624634 1310.983521,975.525330 
	C1319.575684,978.572510 1324.638428,985.001160 1325.508301,994.076782 
	C1326.316528,1002.507507 1322.961914,1009.331421 1315.822266,1014.104492 
	C1314.723999,1014.838806 1313.501709,1015.387634 1311.965942,1016.149414 
z"/>
<path fill="#FEFCFC" opacity="1.000000" stroke="none" 
	d="
M502.390381,949.439270 
	C477.079559,1004.799011 451.957672,1059.830444 426.814636,1114.908081 
	C417.177124,1114.908081 407.703583,1114.908081 397.735687,1114.908081 
	C398.371704,1113.298218 398.840637,1111.931641 399.438446,1110.623779 
	C433.224487,1036.708008 467.056061,962.812988 500.713287,888.838684 
	C502.377930,885.180054 504.228546,883.985107 508.122314,884.147522 
	C515.883118,884.471375 523.666931,884.243469 532.169128,884.243469 
	C522.127991,906.255920 512.353638,927.683411 502.390381,949.439270 
z"/>
<path fill="#FEFCFC" opacity="1.000000" stroke="none" 
	d="
M371.657410,937.663635 
	C366.339935,940.366272 361.344025,942.877808 355.769775,945.680115 
	C366.810059,951.284851 377.307587,956.628052 387.817932,961.945984 
	C399.079071,967.643677 410.306274,973.411987 421.651947,978.936646 
	C424.539490,980.342651 425.898376,981.851074 425.735443,985.292480 
	C425.407074,992.227966 425.637634,999.189941 425.637634,1006.902161 
	C422.261841,1005.260681 419.462524,1003.947998 416.705658,1002.551453 
	C387.066254,987.537109 357.454620,972.467712 327.765869,957.551636 
	C324.861206,956.092285 323.556305,954.519409 323.831909,951.156982 
	C324.237579,946.207947 322.433777,940.186218 324.679138,936.530273 
	C326.924042,932.875061 332.956940,931.500000 337.388458,929.241516 
	C364.623016,915.361572 391.874359,901.514526 419.120270,887.656860 
	C421.002350,886.699524 422.885437,885.744263 425.605469,884.362732 
	C425.605469,893.065002 425.765015,900.972473 425.434753,908.859497 
	C425.384796,910.052673 423.227142,911.486633 421.753571,912.240845 
	C405.194885,920.715576 388.579285,929.079102 371.657410,937.663635 
z"/>
<path fill="#FFFFFF" opacity="1.000000" stroke="none" 
	d="
M548.000122,1087.672607 
	C558.817993,1087.672607 569.135864,1087.672607 579.817993,1087.672607 
	C579.817993,1096.712402 579.817993,1105.597168 579.817993,1114.760010 
	C542.163147,1114.760010 504.449585,1114.760010 466.435822,1114.760010 
	C466.435822,1105.992554 466.435822,1097.251465 466.435822,1087.672607 
	C493.422577,1087.672607 520.461365,1087.672607 548.000122,1087.672607 
z"/>
</svg>